<svg fill="none" height="92" viewBox="0 0 92 92" width="92" xmlns="http://www.w3.org/2000/svg"><path d="m0 0h91.5618v91.5618h-91.5618z" fill="#ff4500"/><path d="m68.671 46.2002c.0069.4667-.0516.9325-.1753 1.383s-.311.8823-.5568 1.2809c-.2448.3985-.5455.7613-.8927 1.0773-.3471.3159-.7372.5816-1.159.7894.0094.1244.0171.2495.0214.3747.0104.2497.0104.4997 0 .7494-.0043.1252-.012.2504-.0214.3748 0 7.6305-8.9702 13.8302-20.0367 13.8302-11.0666 0-20.0367-6.1997-20.0367-13.8302-.0095-.1244-.0172-.2496-.0215-.3748-.0103-.2497-.0103-.4997 0-.7494.0043-.1252.012-.2503.0215-.3747-.661-.3011-1.248-.741-1.7205-1.2892-.4725-.5481-.8192-1.1915-1.0161-1.8856-.1966-.6944-.2384-1.4229-.1227-2.1349s.3863-1.3906.7929-1.9887c.4063-.5979.9389-1.1011 1.561-1.4747.6221-.3735 1.3188-.6084 2.0416-.6884.723-.0803 1.4549-.0038 2.1451.2241s1.3221.6019 1.852 1.0959c.9836-.6608 2.0142-1.2502 3.0837-1.7637 1.0697-.5126 2.1755-.9487 3.3088-1.3029 1.1333-.3543 2.2915-.626 3.4643-.8142s2.3585-.2912 3.5468-.3091l2.5432-11.8205c.0284-.1371.0842-.2665.1641-.3823.0791-.115.1813-.2138.2991-.2896.1185-.0758.2508-.1277.39-.1533.1384-.0247.281-.0221.4185.0077l8.4202 1.6692c.8497-1.4469 2.6335-2.0669 4.2084-1.464 1.5749.603 2.4753 2.2508 2.1231 3.8877-.3514 1.6368-1.8516 2.7779-3.5374 2.6919-1.6866-.086-3.0605-1.3736-3.2409-3.0377l-7.3548-1.5329-2.2339 10.6282c1.1736.0247 2.3447.1337 3.5029.3253 2.3194.3832 4.5709 1.0963 6.6847 2.1171 1.0557.5093 2.0731 1.0933 3.0441 1.7475.6982-.6644 1.5756-1.1143 2.5261-1.2953.9505-.1816 1.9338-.0867 2.8311.2734.8974.3599 1.6705.9695 2.2262 1.7552.5558.7858.8703 1.7142.9056 2.6732zm-34.1071 4.7103c.1736.413.4262.7886.7458 1.1046.3188.3168.6977.5671 1.1144.7392.4171.1709.8641.2589 1.3155.2588 1.3902 0 2.6429-.8303 3.1756-2.1026.5318-1.2732.2371-2.7379-.7458-3.7122-.9829-.9742-2.4608-1.2664-3.7453-.7392-1.2836.528-2.1214 1.7697-2.1214 3.1476 0 .4471.0885.8899.2612 1.3038zm19.6845 8.1772c.1761-.1703.2766-.4028.2801-.6463.0034-.2445-.092-.4795-.2638-.6541-.1719-.1746-.4064-.2742-.6522-.2776-.2466-.0034-.4837.0911-.6822.2384-.5168.3674-1.064.6908-1.6359.9666-.5719.276-1.1663.5036-1.7768.6805-.6101.1763-1.2347.3014-1.8662.3738-.6324.0724-1.2691.0912-1.904.0571-.6341.0281-1.2699.0025-1.8997-.0758-.63-.0776-1.252-.2086-1.8594-.3917-.6083-.1823-1.1986-.4156-1.7665-.6967-.5679-.281-1.1109-.6097-1.623-.9819-.1779-.1448-.4039-.2189-.6341-.2078-.2303.0111-.4477.1073-.6109.2683-.1624.1618-.2595.3772-.2707.6055-.0111.2282.0636.4522.2097.6285.604.4513 1.2458.8499 1.9186 1.1922.6727.3424 1.3747.626 2.0964.8491.7218.2231 1.4616.3841 2.2116.482.7501.0971 1.5071.1303 2.2623.0997.7553.0306 1.5122-.0026 2.2623-.0997 1.5024-.1958 2.9596-.6461 4.3081-1.3311.6727-.3423 1.3146-.7409 1.9186-1.1922zm-.6307-5.802c.4657.0051.9279-.0843 1.3584-.2615.4305-.178.8197-.4403 1.1445-.7715.3247-.3313.5774-.7248.744-1.1565.1668-.4313.2431-.8918.2243-1.3533 0-1.3779-.8377-2.6195-2.1214-3.1475-1.2845-.5272-2.7623-.2351-3.7453.7392-.9829.9742-1.2776 2.439-.7458 3.7122.5327 1.2723 1.7855 2.1026 3.1757 2.1026z" fill="#fff"/></svg>