<svg fill="none" height="92" viewBox="0 0 92 92" width="92" xmlns="http://www.w3.org/2000/svg"><path d="m0 0h91.5618v91.5618h-91.5618z" fill="#e5f7ff"/><path d="m46.015 74.03c13.8154 0 25.015-11.1996 25.015-25.015s-11.1996-25.015-25.015-25.015-25.015 11.1996-25.015 25.015 11.1996 25.015 25.015 25.015z" fill="#34aadf"/><path d="m31.7235 48.4671s12.3912-5.2716 16.6886-7.1279c1.6475-.7424 7.2342-3.1184 7.2342-3.1184s2.5785-1.0394 2.3636 1.485c-.0716 1.0395-.6446 4.6776-1.2176 8.6128-.8595 5.5687-1.7906 11.6571-1.7906 11.6571s-.1433 1.7077-1.3609 2.0047-3.2232-1.0394-3.5812-1.3365c-.2866-.2227-5.3719-3.5639-7.2342-5.1974-.5014-.4455-1.0744-1.3364.0716-2.3759 2.5785-2.4502 5.6584-5.4944 7.5206-7.4249.8596-.891 1.719-2.97-1.8622-.4455-5.0854 3.6382-10.0991 7.0536-10.0991 7.0536s-1.146.7425-3.2948.0742c-2.1488-.6681-4.6557-1.5592-4.6557-1.5592s-1.7189-1.1137 1.2177-2.3017z" fill="#fff"/></svg>